<svg width="16" height="15" viewBox="0 0 16 15" fill="none" xmlns="http://www.w3.org/2000/svg">
<path d="M13.8096 0.579102C13.4316 0.579102 13.1328 0.737305 12.7109 0.939453L1.60156 6.33594C0.819336 6.72266 0.520508 7.11816 0.520508 7.66309C0.520508 8.20801 0.819336 8.6123 1.60156 8.99023L12.7109 14.3867C13.1416 14.5977 13.4404 14.7471 13.8184 14.7471C14.5303 14.7471 15.0225 14.2109 15.0225 13.3408V1.98535C15.0225 1.12402 14.5215 0.579102 13.8096 0.579102ZM13.1768 2.73242C13.2207 2.73242 13.2559 2.76758 13.2559 2.8291L13.2646 12.4971C13.2646 12.5674 13.2295 12.6025 13.1768 12.6025C13.1504 12.6025 13.1152 12.585 13.0713 12.5674L2.99902 7.75977C2.95508 7.74219 2.91992 7.70703 2.91992 7.66309C2.91992 7.61914 2.95508 7.59277 2.99902 7.56641L13.0713 2.76758C13.1064 2.75 13.1416 2.73242 13.1768 2.73242Z" fill="white"/>
</svg>
