<svg width="8" height="10" viewBox="0 0 8 10" fill="none" xmlns="http://www.w3.org/2000/svg">
<path d="M0.675293 8.22263C0.368931 8.22263 0.147949 8.45366 0.147949 8.76504C0.147949 9.07642 0.368931 9.30745 0.675293 9.30745H7.30978C7.62116 9.30745 7.84717 9.07642 7.84717 8.76504C7.84717 8.45366 7.62116 8.22263 7.30978 8.22263H4.11558C4.22607 8.20254 4.32652 8.14227 4.40688 8.05689L7.61614 4.87776C7.73668 4.75723 7.79695 4.62163 7.79695 4.47598C7.79695 4.16459 7.57094 3.93859 7.2696 3.93859C7.11391 3.93859 6.97328 4.00388 6.87284 4.10433L5.83824 5.11883L4.49728 6.59038L4.5475 5.53569V0.859907C4.5475 0.528434 4.3215 0.302429 4.00007 0.302429C3.67362 0.302429 3.44761 0.528434 3.44761 0.859907V5.53569L3.49784 6.5954L2.15688 5.11883L1.1273 4.10433C1.02183 3.99886 0.886231 3.93859 0.730539 3.93859C0.424177 3.93859 0.203195 4.16459 0.203195 4.47598C0.203195 4.62163 0.25844 4.75723 0.378976 4.87776L3.58824 8.05689C3.6686 8.14227 3.76904 8.20254 3.87953 8.22263H0.675293Z" fill="white"/>
</svg>
