<svg width="12" height="11" viewBox="0 0 12 11" fill="none" xmlns="http://www.w3.org/2000/svg">
<path d="M5.99484 10.9955C8.8425 10.9955 11.1929 8.64509 11.1929 5.80245C11.1929 2.95982 8.83747 0.609375 5.98982 0.609375C3.14718 0.609375 0.801758 2.95982 0.801758 5.80245C0.801758 8.64509 3.1522 10.9955 5.99484 10.9955ZM4.80957 8.3789C4.62374 8.19308 4.63379 7.91183 4.80957 7.74107L6.86872 5.80748L4.80957 3.87388C4.62877 3.70815 4.63379 3.41685 4.81962 3.24107C4.98535 3.08036 5.25656 3.0904 5.43736 3.25614L7.5618 5.25C7.88323 5.55134 7.88323 6.07366 7.5618 6.36998L5.43736 8.36384C5.27665 8.51953 4.96526 8.52455 4.80957 8.3789Z" fill="white"/>
</svg>
