<svg width="48" height="48" viewBox="0 0 48 48" fill="none" xmlns="http://www.w3.org/2000/svg">
<path d="M44.5 35.0017V13.0009C44.5 12.5551 44.2265 12.1071 43.8335 11.9076L24.5393 2.12942C24.2002 1.95686 23.7998 1.95686 23.4607 2.12942L4.16654 11.9076C3.77287 12.1071 3.5 12.5555 3.5 13.0009V35.0017C3.5 35.4648 3.75807 35.888 4.16654 36.095L23.4607 45.8731C23.7934 46.0423 24.2069 46.0423 24.5393 45.8731L43.8335 36.095C44.2419 35.888 44.5 35.4648 44.5 35.0017Z" fill="#FFA7D7"/>
<path d="M43.9239 11.7292L43.924 11.7292C44.3849 11.9632 44.7 12.4807 44.7 13.0009V35.0017C44.7 35.5391 44.4005 36.0318 43.9239 36.2734L24.63 46.0514L43.9239 11.7292ZM43.9239 11.7292L24.63 1.95117C24.63 1.95113 24.6299 1.9511 24.6298 1.95106L43.9239 11.7292ZM4.16654 11.9076L4.07612 11.7292L23.37 1.95118C23.37 1.95115 23.3701 1.95113 23.3701 1.95111L23.3703 1.95103L23.4607 2.12942L4.16654 11.9076ZM4.16654 11.9076L4.07612 11.7292C3.61423 11.9633 3.3 12.4813 3.3 13.0009M4.16654 11.9076L3.3 13.0009M3.3 13.0009V35.0017M3.3 13.0009V35.0017M3.3 35.0017C3.3 35.5391 3.5995 36.0319 4.07613 36.2734M3.3 35.0017L4.07613 36.2734M4.07613 36.2734L23.37 46.0514L4.07613 36.2734ZM23.3703 46.0515C23.7598 46.2495 24.2405 46.2495 24.6297 46.0515H23.3703ZM22.5941 23.6569V42.4766L6.11173 34.1235V15.3037L22.5941 23.6569ZM24 4.81345L40.1557 13.0009L24 21.1883L7.84429 13.0009L24 4.81345ZM41.8882 15.3037V34.1235L25.4059 42.4766V23.6569L41.8882 15.3037Z" fill="#FF008A" stroke="#FF008A" stroke-width="0.4"/>
</svg>
