<svg width="48" height="48" viewBox="0 0 48 48" fill="none" xmlns="http://www.w3.org/2000/svg">
<path d="M24.0075 21.9136L30.5506 5.05513L11.9724 29.1991L23.0652 26.3444L17.6488 42.9495L36.0272 18.8128L24.0075 21.9136ZM35.3042 15.8725C38.0367 15.1677 40.0951 18.401 38.3622 20.6765L19.9839 44.8132C17.9375 47.5005 13.7865 45.2208 14.8407 41.9889L18.545 30.6327L12.6943 32.1384C9.95463 32.8432 7.89895 29.5938 9.64701 27.3221L28.2252 3.17813C30.3385 0.431858 34.5629 2.92469 33.3022 6.17378L28.8962 17.5251L35.3042 15.8725Z" fill="#2589FF"/>
<path d="M24.0055 21.8929L30.5486 5.03442L11.9704 29.1784L23.0632 26.3236L17.6468 42.9288L36.0252 18.7921L24.0055 21.8929Z" fill="#9CCAFF"/>
</svg>
