<svg width="42" height="28" viewBox="0 0 42 28" fill="none" xmlns="http://www.w3.org/2000/svg">
<path fill-rule="evenodd" clip-rule="evenodd" d="M0 0.571411L20.2618 11.8676C20.5663 12.0374 20.9378 12.0392 21.244 11.8725L42 0.571411L24.3345 12.482C23.7155 12.8993 23.7548 13.815 24.4074 14.1788L36.9145 21.1516C37.5202 21.4893 38.2815 21.1343 38.4039 20.4569L42 0.571411V23.9869V26.9988C42 27.8016 41.0921 28.2768 40.4218 27.8249L21.5684 15.1134C21.2255 14.8822 20.7745 14.8822 20.4316 15.1134L1.57818 27.8249C0.907878 28.2768 0 27.8016 0 26.9988V0.571411ZM0 0.571411L2.73419 20.4004C2.83002 21.0954 3.60041 21.479 4.22131 21.1409L17.3226 14.0076C17.9827 13.6482 18.027 12.7257 17.4044 12.3059L0 0.571411Z" fill="url(#paint0_linear_93_453)"/>
<defs>
<linearGradient id="paint0_linear_93_453" x1="21" y1="0.571411" x2="21" y2="28" gradientUnits="userSpaceOnUse">
<stop stop-color="#55ADFF"/>
<stop offset="1" stop-color="#C358CC"/>
</linearGradient>
</defs>
</svg>
