<svg width="38" height="19" viewBox="0 0 38 19" fill="none" xmlns="http://www.w3.org/2000/svg">
<path fill-rule="evenodd" clip-rule="evenodd" d="M4.71031 8.5C4.02542 8.5 3.54441 7.82607 3.83523 7.20599C4.01387 6.8251 4.22503 6.42678 4.47302 6.03C5.61127 4.2088 7.46031 2.5 10.5 2.5C13.5397 2.5 15.3888 4.2088 16.527 6.03C17.0987 6.94469 17.4747 7.86754 17.7076 8.56623C17.8235 8.91385 17.9024 9.20149 17.9518 9.39878C17.9764 9.49732 17.9935 9.57297 18.0041 9.62191C18.0094 9.64637 18.0131 9.66412 18.0152 9.67469L18.0276 9.68298C18.0644 9.67588 18.2325 9.64391 19 9.5C19.8869 9.33372 19.9734 9.31673 19.9818 9.315L19.9825 9.31386L19.982 9.31099L19.9805 9.30333L19.9758 9.27941C19.9718 9.25971 19.9662 9.23254 19.9588 9.1984C19.944 9.13016 19.9221 9.03393 19.892 8.91371C19.832 8.67351 19.7391 8.33615 19.605 7.93377C19.3378 7.13245 18.9013 6.05531 18.223 4.97C16.8613 2.7912 14.4603 0.5 10.5 0.5C6.53973 0.5 4.13877 2.7912 2.77702 4.97C2.0987 6.05531 1.66219 7.13245 1.39509 7.93377C1.26096 8.33615 1.16805 8.67351 1.108 8.91371C1.07795 9.03393 1.05604 9.13016 1.04125 9.1984C1.03386 9.23254 1.02823 9.25971 1.02426 9.27941L1.01952 9.30333L1.01804 9.31099L1.01752 9.31372L1.01732 9.31481C1.01732 9.31481 1.01715 9.31571 2.00002 9.5L1.01732 9.31481C0.901927 9.93022 1.37388 10.5 2.00002 10.5H9.50002C10.0523 10.5 10.5 10.0523 10.5 9.5C10.5 8.94772 10.0523 8.5 9.50002 8.5H4.71031Z" fill="url(#paint0_linear_172_785)"/>
<path fill-rule="evenodd" clip-rule="evenodd" d="M33.2897 10.5C33.9746 10.5 34.4556 11.1739 34.1648 11.794C33.9862 12.1749 33.775 12.5732 33.527 12.97C32.3888 14.7912 30.5397 16.5 27.5 16.5C24.4603 16.5 22.6113 14.7912 21.473 12.97C20.9013 12.0553 20.5253 11.1325 20.2925 10.4338C20.1766 10.0861 20.0976 9.79851 20.0483 9.60122C20.0237 9.50268 20.0065 9.42703 19.9959 9.37809C19.9906 9.35363 19.9869 9.33588 19.9848 9.32531L19.9818 9.315C19.9818 9.315 19.9829 9.31571 19 9.5C18.0171 9.68429 18.0173 9.68519 18.0173 9.68519L18.018 9.68901L18.0195 9.69667L18.0243 9.72059C18.0282 9.74029 18.0339 9.76746 18.0413 9.8016C18.056 9.86984 18.0779 9.96607 18.108 10.0863C18.1681 10.3265 18.261 10.6639 18.3951 11.0662C18.6622 11.8675 19.0987 12.9447 19.777 14.03C21.1388 16.2088 23.5397 18.5 27.5 18.5C31.4603 18.5 33.8613 16.2088 35.223 14.03C35.9013 12.9447 36.3378 11.8675 36.6049 11.0662C36.7391 10.6639 36.832 10.3265 36.892 10.0863C36.9221 9.96607 36.944 9.86984 36.9588 9.8016C36.9662 9.76746 36.9718 9.74029 36.9758 9.72059L36.9805 9.69667L36.982 9.68901L36.9825 9.68628L36.9827 9.68519C36.9827 9.68519 36.9829 9.68429 36 9.5L36.9827 9.68519C37.0981 9.06978 36.6262 8.5 36 8.5L28.5 8.5C27.9477 8.5 27.5 8.94771 27.5 9.5C27.5 10.0523 27.9477 10.5 28.5 10.5H33.2897Z" fill="url(#paint1_linear_172_785)"/>
<path fill-rule="evenodd" clip-rule="evenodd" d="M36 9.5C36 9.77614 35.7762 10 35.5 10H28.5C28.2239 10 28 9.77614 28 9.5C28 9.22386 28.2239 9 28.5 9H35.5C35.7762 9 36 9.22386 36 9.5Z" fill="url(#paint2_linear_172_785)"/>
<path fill-rule="evenodd" clip-rule="evenodd" d="M29 7C28.5205 7.27401 27.9096 7.10741 27.6356 6.6279L26.6279 4.86438C26.3539 4.38486 26.5205 3.77401 27 3.5C27.4795 3.22599 28.0904 3.39259 28.3644 3.8721L29.3721 5.63562C29.6461 6.11514 29.4795 6.72599 29 7Z" fill="url(#paint3_linear_172_785)"/>
<path fill-rule="evenodd" clip-rule="evenodd" d="M35.1084 7.05757C34.6131 6.81326 34.4096 6.21368 34.6539 5.71837L35.5525 3.89679C35.7968 3.40148 36.3963 3.19801 36.8917 3.44232C37.387 3.68664 37.5904 4.28622 37.3461 4.78152L36.4476 6.60311C36.2033 7.09842 35.6037 7.30189 35.1084 7.05757Z" fill="url(#paint4_linear_172_785)"/>
<path fill-rule="evenodd" clip-rule="evenodd" d="M32 6C31.4477 6 31 5.55228 31 5V3C31 2.44772 31.4477 2 32 2C32.5523 2 33 2.44772 33 3V5C33 5.55228 32.5523 6 32 6Z" fill="url(#paint5_linear_172_785)"/>
<path fill-rule="evenodd" clip-rule="evenodd" d="M9.01003 12.0576C9.48955 11.7835 10.1004 11.9501 10.3744 12.4297L11.3821 14.1932C11.6561 14.6727 11.4895 15.2835 11.01 15.5576C10.5305 15.8316 9.91966 15.665 9.64565 15.1855L8.63793 13.4219C8.36392 12.9424 8.53052 12.3316 9.01003 12.0576Z" fill="url(#paint6_linear_172_785)"/>
<path fill-rule="evenodd" clip-rule="evenodd" d="M2.90165 12C3.39695 12.2443 3.60042 12.8439 3.35611 13.3392L2.4576 15.1608C2.21329 15.6561 1.61371 15.8595 1.1184 15.6152C0.623094 15.3709 0.419623 14.7713 0.663937 14.276L1.56244 12.4544C1.80676 11.9591 2.40634 11.7557 2.90165 12Z" fill="url(#paint7_linear_172_785)"/>
<path fill-rule="evenodd" clip-rule="evenodd" d="M6.01003 13.0576C6.56232 13.0576 7.01003 13.5053 7.01003 14.0576V16.0576C7.01003 16.6098 6.56232 17.0576 6.01003 17.0576C5.45775 17.0576 5.01003 16.6098 5.01003 16.0576V14.0576C5.01003 13.5053 5.45775 13.0576 6.01003 13.0576Z" fill="url(#paint8_linear_172_785)"/>
<defs>
<linearGradient id="paint0_linear_172_785" x1="19.005" y1="0.5" x2="19.005" y2="18.5" gradientUnits="userSpaceOnUse">
<stop stop-color="#55ADFF"/>
<stop offset="1" stop-color="#C358CC"/>
</linearGradient>
<linearGradient id="paint1_linear_172_785" x1="19.005" y1="0.5" x2="19.005" y2="18.5" gradientUnits="userSpaceOnUse">
<stop stop-color="#55ADFF"/>
<stop offset="1" stop-color="#C358CC"/>
</linearGradient>
<linearGradient id="paint2_linear_172_785" x1="19.005" y1="0.5" x2="19.005" y2="18.5" gradientUnits="userSpaceOnUse">
<stop stop-color="#55ADFF"/>
<stop offset="1" stop-color="#C358CC"/>
</linearGradient>
<linearGradient id="paint3_linear_172_785" x1="19.005" y1="0.5" x2="19.005" y2="18.5" gradientUnits="userSpaceOnUse">
<stop stop-color="#55ADFF"/>
<stop offset="1" stop-color="#C358CC"/>
</linearGradient>
<linearGradient id="paint4_linear_172_785" x1="19.005" y1="0.5" x2="19.005" y2="18.5" gradientUnits="userSpaceOnUse">
<stop stop-color="#55ADFF"/>
<stop offset="1" stop-color="#C358CC"/>
</linearGradient>
<linearGradient id="paint5_linear_172_785" x1="19.005" y1="0.5" x2="19.005" y2="18.5" gradientUnits="userSpaceOnUse">
<stop stop-color="#55ADFF"/>
<stop offset="1" stop-color="#C358CC"/>
</linearGradient>
<linearGradient id="paint6_linear_172_785" x1="19.005" y1="0.5" x2="19.005" y2="18.5" gradientUnits="userSpaceOnUse">
<stop stop-color="#55ADFF"/>
<stop offset="1" stop-color="#C358CC"/>
</linearGradient>
<linearGradient id="paint7_linear_172_785" x1="19.005" y1="0.5" x2="19.005" y2="18.5" gradientUnits="userSpaceOnUse">
<stop stop-color="#55ADFF"/>
<stop offset="1" stop-color="#C358CC"/>
</linearGradient>
<linearGradient id="paint8_linear_172_785" x1="19.005" y1="0.5" x2="19.005" y2="18.5" gradientUnits="userSpaceOnUse">
<stop stop-color="#55ADFF"/>
<stop offset="1" stop-color="#C358CC"/>
</linearGradient>
</defs>
</svg>
