<svg width="16" height="21" viewBox="0 0 16 21" fill="none" xmlns="http://www.w3.org/2000/svg">
<path d="M2.20801 7.12988C2.20801 9.00195 3.35059 10.3027 5.53027 10.874L9.95996 12.0781C11.3662 12.4648 12.0869 13.1943 12.0869 14.2139V14.5566C10.8477 14.917 9.94238 16.0684 9.94238 17.4219C9.94238 19.0654 11.2871 20.4014 12.9395 20.4014C14.583 20.4014 15.9189 19.0654 15.9189 17.4219C15.9189 16.0684 15.0137 14.917 13.7832 14.5566V14.2139C13.7832 12.3418 12.6406 11.0498 10.4609 10.4697L6.02246 9.26562C4.63379 8.8877 3.9043 8.14941 3.9043 7.12988V6.78711C5.14355 6.42676 6.04004 5.28418 6.04004 3.92188C6.04004 2.27832 4.7041 0.942383 3.05176 0.942383C1.4082 0.942383 0.0722656 2.27832 0.0722656 3.92188C0.0722656 5.28418 0.977539 6.42676 2.20801 6.78711V7.12988Z" fill="#7FF4D1"/>
</svg>
