<svg width="20" height="19" viewBox="0 0 20 19" fill="none" xmlns="http://www.w3.org/2000/svg">
<path d="M10 18.7334C14.9658 18.7334 19.0791 14.6289 19.0791 9.6543C19.0791 4.68848 14.9658 0.575195 9.99121 0.575195C5.02539 0.575195 0.920898 4.68848 0.920898 9.6543C0.920898 14.6289 5.03418 18.7334 10 18.7334ZM10 16.9492C5.95703 16.9492 2.71387 13.6973 2.71387 9.6543C2.71387 5.61133 5.94824 2.36816 9.99121 2.36816C14.0342 2.36816 17.2861 5.61133 17.2949 9.6543C17.2949 13.6973 14.043 16.9492 10 16.9492ZM10 9.8916C10.3867 9.8916 10.6592 9.61035 10.6592 9.21484V5.51465C10.6592 5.11914 10.3867 4.83789 10 4.83789C9.61328 4.83789 9.34082 5.11914 9.34082 5.51465V9.21484C9.34082 9.61035 9.61328 9.8916 10 9.8916ZM10 14.1982C12.4961 14.1982 14.5615 12.1328 14.5615 9.64551C14.5615 8.41504 14.0254 7.20215 13.1289 6.3584C12.4697 5.72559 11.5732 6.63965 12.2236 7.29004C12.874 7.90527 13.2344 8.73145 13.2432 9.64551C13.2432 11.4473 11.8018 12.8887 10 12.8887C8.19824 12.8887 6.76562 11.4473 6.76562 9.64551C6.76562 8.73145 7.12598 7.90527 7.77637 7.28125C8.43555 6.63086 7.53027 5.72559 6.87988 6.3584C5.97461 7.19336 5.44727 8.40625 5.44727 9.64551C5.44727 12.1328 7.50391 14.1982 10 14.1982Z" fill="white"/>
</svg>
